HIERARCHY
ROOT SpineBase
{
  OFFSET 0.000000 0.000000 0.000000
  CHANNELS 6 Xposition Yposition Zposition Zrotation Xrotation Yrotation
  JOINT SpineMid
  {
    OFFSET 0.000000 32.393888 0.000000
    CHANNELS 3 Zrotation Xrotation Yrotation
    JOINT SpineShoulder
    {
      OFFSET 0.111481 24.085072 -0.748652
      CHANNELS 3 Zrotation Xrotation Yrotation
      JOINT Neck
      {
        OFFSET 0.065166 7.969395 -0.583959
        CHANNELS 3 Zrotation Xrotation Yrotation
        JOINT Head
        {
          OFFSET -4.237447 14.471607 -1.108090
          CHANNELS 3 Zrotation Xrotation Yrotation
          End Site
          {
            OFFSET 0 0 0
          }
        }
      }
      JOINT ShoulderLeft
      {
        OFFSET -17.310030 -4.381065 5.204991
        CHANNELS 3 Zrotation Xrotation Yrotation
        JOINT ElbowLeft
        {
          OFFSET -2.121387 -22.140603 2.328100
          CHANNELS 3 Zrotation Xrotation Yrotation
          JOINT WristLeft
          {
            OFFSET 4.345506 -7.331139 -23.058949
            CHANNELS 3 Zrotation Xrotation Yrotation
            JOINT HandLeft
            {
              OFFSET 0.749891 -2.436426 -2.170887
              CHANNELS 3 Zrotation Xrotation Yrotation
              JOINT HandTipLeft
              {
                OFFSET -2.702422 -0.081478 -6.314862
                CHANNELS 3 Zrotation Xrotation Yrotation
                End Site
                {
                  OFFSET 0 0 0
                }
              }
              JOINT ThumbLeft
              {
                OFFSET 1.828073 -2.822047 -2.274206
                CHANNELS 3 Zrotation Xrotation Yrotation
                End Site
                {
                  OFFSET 0 0 0
                }
              }
            }
          }
        }
      }
      JOINT ShoulderRight
      {
        OFFSET 15.288251 -2.889647 -6.893702
        CHANNELS 3 Zrotation Xrotation Yrotation
        JOINT ElbowRight
        {
          OFFSET 8.004644 -22.632719 -2.007583
          CHANNELS 3 Zrotation Xrotation Yrotation
          JOINT WristRight
          {
            OFFSET -14.779098 -6.862464 -12.904037
            CHANNELS 3 Zrotation Xrotation Yrotation
            JOINT HandRight
            {
              OFFSET -7.538307 -1.702051 -4.490426
              CHANNELS 3 Zrotation Xrotation Yrotation
              JOINT HandTipRight
              {
                OFFSET -5.220748 -1.390793 -3.561277
                CHANNELS 3 Zrotation Xrotation Yrotation
                End Site
                {
                  OFFSET 0 0 0
                }
              }
              JOINT ThumbRight
              {
                OFFSET -5.723497 0.672910 -3.077728
                CHANNELS 3 Zrotation Xrotation Yrotation
                End Site
                {
                  OFFSET 0 0 0
                }
              }
            }
          }
        }
      }
    }
  }
  JOINT HipLeft
  {
    OFFSET -7.247135 0.281672 -1.525622
    CHANNELS 3 Zrotation Xrotation Yrotation
    JOINT KneeLeft
    {
      OFFSET 1.338761 -32.929437 3.305516
      CHANNELS 3 Zrotation Xrotation Yrotation
      JOINT AnkleLeft
      {
        OFFSET 4.584111 -36.216653 7.332710
        CHANNELS 3 Zrotation Xrotation Yrotation
        JOINT FootLeft
        {
          OFFSET 0.277675 -7.714752 -7.103470
          CHANNELS 3 Zrotation Xrotation Yrotation
          End Site
          {
            OFFSET 0 0 0
          }
        }
      }
    }
  }
  JOINT HipRight
  {
    OFFSET 7.756227 1.657991 -5.917197
    CHANNELS 3 Zrotation Xrotation Yrotation
    JOINT KneeRight
    {
      OFFSET 4.413667 -31.090138 1.214708
      CHANNELS 3 Zrotation Xrotation Yrotation
      JOINT AnkleRight
      {
        OFFSET 1.940784 -38.872286 7.598184
        CHANNELS 3 Zrotation Xrotation Yrotation
        JOINT FootRight
        {
          OFFSET -2.704048 -4.937971 -10.704554
          CHANNELS 3 Zrotation Xrotation Yrotation
          End Site
          {
            OFFSET 0 0 0
          }
        }
      }
    }
  }
}
MOTION
Frames: 11
Frame Time: 0.033333
-23.164955 79.181354 346.354159 0.281233 1.709838 15.432473 0.161260 -0.059190 -15.427781 0.045420 -0.112232 0.018500 1.581254 -2.662785 -0.109481 0.000000 0.000000 0.000000 -0.370049 30.268314 -3.281723 11.529269 12.946543 -1.734239 30.852797 0.561728 -2.897158 -34.422785 -30.831972 -69.624731 0.000000 0.000000 0.000000 0.000000 0.000000 0.000000 4.781636 34.641972 10.656663 -30.016431 -28.582883 -3.952621 -3.038457 8.147998 -8.049506 10.986517 -9.867317 5.818519 0.000000 0.000000 0.000000 0.000000 0.000000 0.000000 0.253615 0.230441 -15.307044 -1.645033 -0.569614 -0.221242 -0.930772 10.697838 2.392492 0.000000 0.000000 0.000000 -0.918445 0.031546 -15.260581 0.215493 0.221979 -0.177017 1.777556 -11.189085 2.909730 0.000000 0.000000 0.000000
-23.174860 79.193873 346.366024 0.295530 1.698303 15.424526 0.175529 -0.072394 -15.418650 0.057574 -0.122932 0.021148 1.612961 -2.872040 -0.171438 0.000000 0.000000 0.000000 -0.374085 31.451078 -3.421545 12.437349 9.091296 -3.125202 29.217863 16.780495 -4.503224 -35.648102 -36.896074 -76.880533 0.000000 0.000000 0.000000 0.000000 0.000000 0.000000 4.537367 36.479685 11.303774 -30.919891 -29.920714 -5.524074 -2.120260 6.197042 -6.239838 8.387683 -10.267240 11.051429 0.000000 0.000000 0.000000 0.000000 0.000000 0.000000 0.242868 0.276305 -15.299462 -1.659735 -0.597649 -0.227160 -0.323930 10.919340 1.868653 0.000000 0.000000 0.000000 -0.893018 0.097649 -15.243047 0.186969 0.104778 -0.191200 -0.166045 -3.068081 2.034662 0.000000 0.000000 0.000000
-23.183361 79.204919 346.378356 0.315325 1.687271 15.411049 0.200614 -0.083581 -15.403473 0.073900 -0.127578 0.024743 1.549010 -3.100786 -0.245408 0.000000 0.000000 0.000000 -0.489272 32.391709 -3.522263 13.252840 7.110262 -4.030560 15.222399 27.421556 2.500059 -27.670100 -40.391122 -81.403403 0.000000 0.000000 0.000000 0.000000 0.000000 0.000000 4.295133 38.172616 11.909146 -31.895016 -31.121156 -6.973422 -1.001081 4.225500 -4.555981 5.125123 -10.318750 17.019126 0.000000 0.000000 0.000000 0.000000 0.000000 0.000000 0.236434 0.320731 -15.285360 -1.680057 -0.637607 -0.234898 1.061711 10.047598 0.595163 0.000000 0.000000 0.000000 -0.901067 0.149577 -15.224552 0.237122 0.129761 -0.183034 -1.471668 5.732740 -0.056333 0.000000 0.000000 0.000000
-23.185171 79.218007 346.390710 0.344814 1.676229 15.373331 0.225773 -0.102884 -15.363710 0.091730 -0.138829 0.029104 1.433646 -3.268849 -0.313002 0.000000 0.000000 0.000000 -0.728608 33.150849 -3.580887 13.961838 4.093857 -4.900785 -0.540889 39.123552 12.630914 -19.508739 -39.710760 -79.005305 0.000000 0.000000 0.000000 0.000000 0.000000 0.000000 4.269392 39.539501 12.307726 -32.961165 -32.026308 -8.071849 0.199134 2.443884 -3.185022 2.787761 -9.984453 20.549104 0.000000 0.000000 0.000000 0.000000 0.000000 0.000000 0.216563 0.366405 -15.247780 -1.655354 -0.711080 -0.237526 3.107602 7.493774 -1.366777 0.000000 0.000000 0.000000 -0.925283 0.220336 -15.180514 0.300703 0.194570 -0.172947 -2.235168 9.384904 -0.405676 0.000000 0.000000 0.000000
-23.179791 79.219198 346.403192 0.381843 1.664271 15.306126 0.250573 -0.129298 -15.294172 0.107197 -0.155031 0.033750 1.284419 -3.339660 -0.361946 0.000000 0.000000 0.000000 -0.782879 33.633029 -3.642998 13.799197 2.526577 -4.744125 -12.294939 43.550888 21.244348 -16.603441 -41.469761 -74.889269 0.000000 0.000000 0.000000 0.000000 0.000000 0.000000 4.214238 40.518094 12.586185 -33.788448 -32.642157 -8.796403 0.680831 1.455030 -1.918422 2.435128 -9.038956 18.348549 0.000000 0.000000 0.000000 0.000000 0.000000 0.000000 0.188515 0.391661 -15.181135 -1.675135 -0.734785 -0.244526 5.677346 4.320502 -3.762651 0.000000 0.000000 0.000000 -0.973722 0.295017 -15.108404 0.379677 0.310860 -0.159316 -2.807343 8.988706 0.631729 0.000000 0.000000 0.000000
-23.171378 79.229325 346.412097 0.421056 1.652539 15.237439 0.270709 -0.158280 -15.223237 0.119926 -0.174724 0.038158 1.139120 -3.363755 -0.399947 0.000000 0.000000 0.000000 -0.635163 33.788561 -3.706130 13.600106 2.489295 -4.736246 -12.090230 45.264423 21.264478 -17.414799 -50.034145 -85.968570 0.000000 0.000000 0.000000 0.000000 0.000000 0.000000 4.094410 41.024355 12.741473 -34.162193 -33.064285 -9.029746 0.261341 1.663818 -1.341595 3.942567 -9.372175 15.820282 0.000000 0.000000 0.000000 0.000000 0.000000 0.000000 0.138219 0.417663 -15.115396 -1.669829 -0.742340 -0.246057 7.023954 0.247019 -5.062949 0.000000 0.000000 0.000000 -0.983094 0.378163 -15.030259 0.393703 0.422045 -0.155350 -2.162004 4.947639 1.132619 0.000000 0.000000 0.000000
-23.164196 79.252199 346.423339 0.453984 1.633430 15.182158 0.288876 -0.180485 -15.165987 0.128566 -0.193155 0.041768 1.017536 -3.350722 -0.425375 0.000000 0.000000 0.000000 -0.549830 33.536590 -3.706229 13.837845 4.378633 -5.104852 -13.146015 40.319833 21.370104 -11.437902 -45.415584 -85.136302 0.000000 0.000000 0.000000 0.000000 0.000000 0.000000 3.845522 41.266098 12.879215 -34.124868 -33.391519 -9.071479 -0.673958 2.239062 -0.533180 5.009089 -8.834223 11.362237 0.000000 0.000000 0.000000 0.000000 0.000000 0.000000 0.093419 0.447240 -15.063161 -1.644737 -0.784185 -0.248151 8.968451 -4.849389 -6.926282 0.000000 0.000000 0.000000 -0.968135 0.455097 -14.965420 0.351698 0.519278 -0.160238 -0.383811 -8.303741 5.057743 0.000000 0.000000 0.000000
-23.156332 79.283837 346.434827 0.485876 1.608812 15.134739 0.299758 -0.200509 -15.116931 0.134714 -0.214993 0.044860 0.913135 -3.272421 -0.433796 0.000000 0.000000 0.000000 -0.349523 33.359893 -3.732651 13.779265 4.414572 -5.510686 -11.122844 43.828337 20.369631 -12.929087 -45.079838 -85.324469 0.000000 0.000000 0.000000 0.000000 0.000000 0.000000 3.464482 41.464188 13.068491 -34.207325 -33.510571 -8.979488 -1.005741 3.062447 -1.530053 5.714160 -9.405843 11.577394 0.000000 0.000000 0.000000 0.000000 0.000000 0.000000 0.042172 0.478481 -15.019771 -1.545436 -0.828870 -0.234876 4.891492 -4.213860 -3.364805 0.000000 0.000000 0.000000 -0.954150 0.544096 -14.907780 0.244364 0.530180 -0.184509 1.698737 -16.978416 7.311183 0.000000 0.000000 0.000000
-23.146056 79.319584 346.447420 0.521122 1.571693 15.071039 0.302851 -0.228503 -15.051587 0.140475 -0.240373 0.047949 0.806005 -3.097499 -0.423786 0.000000 0.000000 0.000000 0.235693 33.200920 -3.831164 13.022588 4.820350 -5.437117 5.890258 48.943720 8.269193 -26.349103 -45.972364 -85.343023 0.000000 0.000000 0.000000 0.000000 0.000000 0.000000 2.711024 41.633893 13.417603 -34.094433 -33.604768 -8.755017 -0.977334 4.429253 -4.265872 7.188622 -10.745278 13.227420 0.000000 0.000000 0.000000 0.000000 0.000000 0.000000 -0.008373 0.536857 -14.959954 -1.397715 -0.891670 -0.212194 3.363814 -6.175810 -2.198150 0.000000 0.000000 0.000000 -0.929754 0.643516 -14.833216 0.086653 0.451791 -0.222561 3.223850 -21.594033 8.390709 0.000000 0.000000 0.000000
-23.135325 79.359632 346.460709 0.557689 1.529910 15.026689 0.298166 -0.258042 -15.005801 0.142258 -0.263872 0.050433 0.746158 -2.954779 -0.419181 0.000000 0.000000 0.000000 0.853170 32.674181 -3.883303 11.031152 5.623054 -3.831733 23.764547 48.431379 -5.012093 -36.425917 -45.869064 -85.317071 0.000000 0.000000 0.000000 0.000000 0.000000 0.000000 1.785865 41.810690 13.858407 -33.981775 -33.263142 -8.845754 -0.397559 5.140400 -7.008196 7.437763 -11.113587 14.956485 0.000000 0.000000 0.000000 0.000000 0.000000 0.000000 -0.048291 0.607801 -14.918173 -1.236151 -0.981316 -0.188103 2.401559 -6.252617 -1.499116 0.000000 0.000000 0.000000 -0.919381 0.751796 -14.778687 0.025382 0.270895 -0.248328 2.298093 -17.688143 7.033989 0.000000 0.000000 0.000000
-23.122103 79.399227 346.473574 0.595137 1.490734 15.013856 0.284883 -0.275936 -14.992128 0.141912 -0.278097 0.052091 0.723500 -2.904466 -0.429674 0.000000 0.000000 0.000000 1.701017 32.447049 -4.012561 8.661725 3.796310 -2.312616 23.882159 58.336530 -6.196311 -35.639167 -50.980186 -90.395521 0.000000 0.000000 0.000000 0.000000 0.000000 0.000000 0.670387 42.110959 14.456121 -34.038488 -32.790953 -9.112140 2.095247 4.076317 -10.413278 6.976695 -11.498078 19.086056 0.000000 0.000000 0.000000 0.000000 0.000000 0.000000 -0.089232 0.687815 -14.907764 -1.094459 -1.062018 -0.166624 1.257807 -3.830989 -0.519062 0.000000 0.000000 0.000000 -0.927252 0.838409 -14.759638 -0.027875 0.234003 -0.264386 2.320410 -12.948685 2.867946 0.000000 0.000000 0.000000
